<svg xmlns="http://www.w3.org/2000/svg" viewBox="0 0 1200 1600" role="img" aria-labelledby="title desc">
<title id="title">Romeo e Giulietta</title>
<desc id="desc">Copertina originale StageDesk Store per Romeo e Giulietta</desc>
<defs><linearGradient id="bg" x1="0" y1="0" x2="1" y2="1"><stop stop-color="#241b43"/><stop offset="1" stop-color="#101313"/></linearGradient><radialGradient id="glow" cx="50%" cy="25%" r="70%"><stop stop-color="#e63d55" stop-opacity=".52"/><stop offset="1" stop-color="#e63d55" stop-opacity="0"/></radialGradient></defs>
<rect width="1200" height="1600" fill="url(#bg)"/><rect width="1200" height="1600" fill="url(#glow)"/>
<path d="M0 0h190v1600H0zM1010 0h190v1600h-190z" fill="#080b0b" opacity=".72"/>
<path d="M150 0h120v480l-120 270zM1050 0H930v480l120 270z" fill="#e63d55" opacity=".12"/>
<ellipse cx="600" cy="1090" rx="365" ry="130" fill="#e63d55" opacity=".11"/><path d="M380 1110h440l-65 300H445z" fill="#0c1111" stroke="#e63d55" stroke-opacity=".55" stroke-width="4"/><path d="M470 1110v-310h260v310" fill="none" stroke="#e63d55" stroke-opacity=".7" stroke-width="4"/><circle cx="600" cy="780" r="80" fill="#e63d55" opacity=".2"/>
<text x="90" y="125" fill="#e63d55" font-family="Arial,sans-serif" font-size="28" font-weight="700" letter-spacing="7">STAGEDESK CLASSICI</text>
<text x="90" y="320" fill="#f4f1eb" font-family="Georgia,serif" font-size="76" font-weight="700">Romeo e Giulietta</text>
<text x="90" y="420" fill="#c9c6bf" font-family="Arial,sans-serif" font-size="32">William Shakespeare</text>
<line x1="90" y1="475" x2="1110" y2="475" stroke="#e63d55" stroke-width="5"/><text x="90" y="1485" fill="#f4f1eb" font-family="Arial,sans-serif" font-size="25" letter-spacing="3">ADATTAMENTO ORIGINALE · FORMATO STAGEDESK</text>
</svg>